<svg width="40" height="62" viewBox="0 0 40 62" fill="none" xmlns="http://www.w3.org/2000/svg">
<path d="M39.4353 6.74516C38.9072 5.92858 38.1357 5.90513 37.2566 5.8784C37.157 5.87537 37.056 5.8723 36.9538 5.86803C36.876 5.86442 36.7901 5.86581 36.7004 5.86727C36.3439 5.87305 35.9268 5.87981 35.7167 5.57732C35.4731 5.22663 35.4962 4.5489 35.5153 3.9894C35.5213 3.81261 35.5269 3.64751 35.5236 3.50839C35.4894 2.20869 35.418 0.828065 34.9211 0.366525C34.5464 0.0202397 33.4255 0.0682129 32.3917 0.112456C32.0566 0.126798 31.7306 0.140748 31.4422 0.140748H9.43804C8.995 0.140748 8.53059 0.104323 8.07429 0.0685325C7.18515 -0.00120653 6.32679 -0.0685323 5.71725 0.140748C4.83262 0.445958 4.77272 2.04977 4.71632 3.56L4.71328 3.64126C4.66593 4.88801 4.35993 5.85005 3.34576 5.75315C2.16621 5.64226 0.992493 5.60729 0.459182 6.68522C-0.170671 7.96058 -0.0407705 9.29561 0.1919 11.6868C0.225136 12.0284 0.260469 12.3916 0.295984 12.7791H39.7755C39.7981 12.4958 39.8221 12.2162 39.8458 11.941C40.0306 9.78967 40.1917 7.91521 39.4353 6.74516Z" fill="#8047F8"/>
<path fill-rule="evenodd" clip-rule="evenodd" d="M3.37053 15.1508C3.98713 23.5769 4.59699 32.0128 5.20686 40.4487L5.20723 40.4539C5.53837 45.0343 5.86952 49.6148 6.20174 54.1938H7.46143C7.54727 54.9106 7.64549 55.7954 7.74904 56.7284C7.95925 58.6222 8.19148 60.7143 8.38671 62H8.52604C9.80915 61.5259 18.6794 57.6976 18.6834 42.4562C18.6818 42.4127 18.6832 42.3693 18.6877 42.3261H16.4962C16.3901 42.3251 16.2873 42.2894 16.2035 42.2244C16.1198 42.1594 16.0598 42.0687 16.0327 41.9663C15.8191 41.4336 15.6469 40.8854 15.5176 40.3263C14.2284 41.0615 13.2046 42.1842 12.5922 43.5342C12.0108 42.1515 11.9347 40.6089 12.3772 39.1759C12.8197 37.7428 13.7526 36.5106 15.0129 35.6944C15.0291 31.2469 16.6783 26.9597 19.6483 23.6442L19.6946 23.6031C19.7809 23.5277 19.8914 23.4858 20.0061 23.4848C20.0723 23.4854 20.1378 23.4997 20.1983 23.5268C20.2595 23.5543 20.3143 23.5942 20.359 23.6442C23.3637 26.9642 25.0041 31.2927 24.9532 35.7664C26.237 36.5598 27.1889 37.7912 27.6322 39.232C28.0754 40.6728 27.98 42.2252 27.3636 43.6011C26.7544 42.2488 25.7298 41.1253 24.4381 40.3932C24.3592 40.935 24.2139 41.465 24.0055 41.9714C23.9334 42.1873 23.7892 42.3261 23.645 42.3261H21.3079C21.3116 42.352 21.3142 42.378 21.3157 42.404L21.3166 42.41V42.4226C21.3174 42.445 21.3175 42.4675 21.3167 42.49C21.3486 58.169 30.7797 61.7278 31.5747 62H31.8465C31.916 60.7651 32.142 59.061 32.3623 57.3998C32.5141 56.2549 32.6632 55.1304 32.7565 54.1938H34.0308C34.4386 48.4261 34.8581 42.6745 35.2776 36.9228L35.2779 36.9197L35.278 36.918C35.8146 29.5609 36.3512 22.2037 36.8635 14.8121H3.45213C3.35596 14.8311 3.36252 14.9899 3.37053 15.1508ZM20.0061 23.4848L20.0036 23.4848H20.0088L20.0061 23.4848Z" fill="#8047F8"/>
</svg>
